<svg xmlns="http://www.w3.org/2000/svg" width="16" height="16" viewBox="0 0 16 16"><path d="M8.25.25a8,8,0,0,1,.237,16H8.229A8,8,0,0,1,.25,8.5V8.24a8,8,0,0,1,8-7.99Zm2.013,8.774H6.237c.155,2.994,1.208,5.512,1.941,5.677H8.25c.7,0,1.775-2.446,1.992-5.4Zm4.4,0H11.811a13.531,13.531,0,0,1-1.218,5.244,6.462,6.462,0,0,0,4.026-4.986Zm-9.982,0H1.85a6.462,6.462,0,0,0,4.067,5.244,13,13,0,0,1-1.2-4.852l-.031-.392ZM5.917,2.232l-.124.052A6.462,6.462,0,0,0,1.84,7.476H4.678A13.989,13.989,0,0,1,5.773,2.511ZM8.24,1.8c-.723,0-1.837,2.591-2,5.677h4.026C10.108,4.482,9.045,1.964,8.312,1.8H8.24Zm2.354.444.031.052a13.368,13.368,0,0,1,1.187,5.182H14.65a6.483,6.483,0,0,0-4.057-5.234Z" transform="translate(-0.25 -0.25)"/></svg>